:SAMPLES-PER-SECOND 30
:FULLY-SPECIFIED
:DEGREES
210
root  4.721155692 36.98866536 2.655733289 -5.786987305 -45.55700684 -3.223022461
lowerback  7.920710087 3.885390043 -5.635550022
upperback  2.479860067 4.616290092 -2.043720007
thorax  -2.131649971 2.282069921 0.5823429823
lowerneck  -7.152440071 6.329160213 -3.603430033
upperneck  10.45810032 8.28302002 5.860179901
head  3.882790089 4.263430119 2.791680098
lclavicle  0 -9.442270133e-015 7.951389973e-016
lhumerus  1.046880007 -16.94599915 82.58959961
lradius  2.656221364e-031 -2.326656851e-031 138.7839966
lwrist  -7.062250077e-031 -0 4.046380043
lhand  -1.496451383e-031 -27.76390076 20.11240005
lfingers  90 7.125020027 -90
lthumb  89.89689403 5.08795885 91.16245106
rclavicle  0 -9.442270133e-015 7.951389973e-016
rhumerus  5.616360188 16.57259941 -79.30789948
rradius  -2.596662853e-031 2.392945061e-031 137.3379974
rwrist  7.062250077e-031 -1.765562519e-031 -5.453979969
rhand  -7.920061211e-032 -33.2840004 9.303460121
rfingers  -90 -7.125020027 -90
rthumb  -92.93752616 -24.25625642 -97.11982154
rfemur  -9.869520187 3.884919882 11.72850037
rtibia  -0 0 66.36560059
rfoot  -4.900146543e-032 -25.7404995 -2.896579981
rtoes  5.373923086 19.29304026 -105.8922705
lfemur  -18.8878994 -3.813230038 0.1618770063
ltibia  -0 0 62.42150116
lfoot  4.696626271e-032 -19.98139954 5.600039959
ltoes  -4.250644065 -19.5611806 -102.515957
211
root  4.882999856 37.36999992 2.585711066 -5.242004395 -46.26800537 -2.74798584
lowerback  8.269590378 3.874660015 -5.493159771
upperback  2.673340082 4.594709873 -1.932469964
thorax  -2.120790005 2.266609907 0.6052200198
lowerneck  -7.115650177 6.542679787 -3.316730022
upperneck  9.675519943 8.621999741 5.252820015
head  4.067029953 4.390250206 2.833440065
lclavicle  0 -9.442270133e-015 7.951389973e-016
lhumerus  1.251569986 -16.73139954 82.20970154
lradius  2.660724156e-031 -2.321506192e-031 138.8950043
lwrist  -7.062250077e-031 -0 4.227910042
lhand  -1.496451383e-031 -27.76390076 20.11240005
lfingers  90 7.125020027 -90
lthumb  89.89689403 5.08795885 91.16245106
rclavicle  0 -9.442270133e-015 7.951389973e-016
rhumerus  6.063489914 16.82360077 -79.04740143
rradius  -2.598583415e-031 2.390859317e-031 137.3840027
rwrist  1.412450015e-030 -0 -5.701489925
rhand  -7.920061211e-032 -33.2840004 9.303460121
rfingers  -90 -7.125020027 -90
rthumb  -92.93752616 -24.25625642 -97.11982154
rfemur  -11.51809978 4.202680111 10.95930004
rtibia  -0 0 65.88670349
rfoot  -7.195948881e-032 -23.06200027 -1.841850042
rtoes  5.373923086 19.29304026 -105.8922705
lfemur  -19.57430077 -3.453609943 -0.4666059911
ltibia  -0 0 61.67570114
lfoot  4.635135693e-032 -17.77339935 6.36371994
ltoes  -4.250644065 -19.5611806 -102.515957
212
root  5.037288966 37.76155607 2.519111183 -4.96697998 -46.92599487 -2.085021973
lowerback  8.727589607 3.823230028 -5.475769997
upperback  2.910249949 4.49985981 -1.85247004
thorax  -2.127500057 2.213340044 0.667756021
lowerneck  -6.956950188 6.767539978 -3.056240082
upperneck  9.092960358 8.943599701 4.834139824
head  3.842099905 4.540060043 2.624449968
lclavicle  0 -9.442270133e-015 7.951389973e-016
lhumerus  1.466719985 -16.20919991 81.77410126
lradius  2.660886132e-031 -2.321320535e-031 138.8990021
lwrist  -7.062250077e-031 -0 4.661739826
lhand  -1.496451383e-031 -27.76390076 20.11240005
lfingers  90 7.125020027 -90
lthumb  89.89689403 5.08795885 91.16245106
rclavicle  0 -9.442270133e-015 7.951389973e-016
rhumerus  6.598380089 17.11289978 -78.80770111
rradius  -2.60066897e-031 2.388590577e-031 137.4340057
rwrist  7.062250077e-031 -0 -6.148449898
rhand  -7.920061211e-032 -33.2840004 9.303460121
rfingers  -90 -7.125020027 -90
rthumb  -92.93752616 -24.25625642 -97.11982154
rfemur  -12.96020031 4.549789906 10.06910038
rtibia  -0 0 65.32649994
rfoot  -4.709209875e-032 -20.39830017 -0.7690380216
rtoes  5.373923086 19.29304026 -105.8922705
lfemur  -20.16270065 -3.131299973 -1.239519954
ltibia  -0 0 60.92089844
lfoot  -0 -15.55599976 7.194300175
ltoes  -4.250644065 -19.5611806 -102.515957
213
root  5.194088793 38.1524454 2.44831119 -4.568969727 -47.51300049 -1.703979492
lowerback  9.27355957 3.705879927 -5.286930084
upperback  3.200720072 4.329569817 -1.722900033
thorax  -2.113770008 2.121249914 0.6934710145
lowerneck  -6.822700024 7.007639885 -2.654439926
upperneck  8.372590065 9.284810066 4.265029907
head  3.591609955 4.698790073 2.340409994
lclavicle  0 -9.442270133e-015 7.951389973e-016
lhumerus  1.603430033 -15.88739967 81.42500305
lradius  2.668811392e-031 -2.312204531e-031 139.0950012
lwrist  -3.531125038e-031 -3.531125038e-031 4.780489922
lhand  -1.496451383e-031 -27.76390076 20.11240005
lfingers  90 7.125020027 -90
lthumb  89.89689403 5.08795885 91.16245106
rclavicle  0 -9.442270133e-015 7.951389973e-016
rhumerus  7.279069901 17.50029945 -78.5739975
rradius  -2.599792858e-031 2.389544126e-031 137.4129944
rwrist  7.062250077e-031 -1.765562519e-031 -6.737820148
rhand  -7.920061211e-032 -33.2840004 9.303460121
rfingers  -90 -7.125020027 -90
rthumb  -92.93752616 -24.25625642 -97.11982154
rfemur  -14.26280022 4.892529964 9.466850281
rtibia  -0 0 64.68009949
rfoot  -4.906432039e-032 -17.76269913 -0.008797340095
rtoes  5.373923086 19.29304026 -105.8922705
lfemur  -20.77359962 -2.882610083 -1.760579944
ltibia  -0 0 60.17169952
lfoot  -0 -13.50129986 8.012490273
ltoes  -4.250644065 -19.5611806 -102.515957
214
root  5.344022165 38.51888762 2.374177843 -4.088012695 -48.27200317 -1.440002441
lowerback  9.829950333 3.660219908 -5.149960041
upperback  3.472640038 4.251649857 -1.510779977
thorax  -2.13902998 2.075670004 0.8217030168
lowerneck  -6.766320229 7.235050201 -2.251679897
upperneck  7.662360191 9.613129616 3.61383009
head  3.37135005 4.848480225 2.038539886
lclavicle  0 -9.442270133e-015 7.951389973e-016
lhumerus  1.708520055 -15.66450024 81.20610046
lradius  2.679557247e-031 -2.299742811e-031 139.3619995
lwrist  -7.062250077e-031 -1.765562519e-031 4.86605978
lhand  -1.496451383e-031 -27.76390076 20.11240005
lfingers  90 7.125020027 -90
lthumb  89.89689403 5.08795885 91.16245106
rclavicle  0 -9.442270133e-015 7.951389973e-016
rhumerus  7.977670193 17.9197998 -78.21389771
rradius  -2.59875023e-031 2.390677996e-031 137.3880005
rwrist  1.412450015e-030 -1.765562519e-031 -7.378419876
rhand  -7.920061211e-032 -33.2840004 9.303460121
rfingers  -90 -7.125020027 -90
rthumb  -92.93752616 -24.25625642 -97.11982154
rfemur  -15.60709953 5.407320023 9.027359962
rtibia  -0 0 63.95759964
rfoot  -4.574943501e-032 -15.24720001 0.3917590082
rtoes  5.373923086 19.29304026 -105.8922705
lfemur  -21.3647995 -2.466720104 -2.129159927
ltibia  -0 0 59.43930054
lfoot  -0 -11.39659977 8.563280106
ltoes  -4.250644065 -19.5611806 -102.515957
215
root  5.476044482 38.86733468 2.299111096 -3.781982422 -49.1190033 -0.9240112305
lowerback  10.33969975 3.699110031 -5.319109917
upperback  3.710089922 4.25605011 -1.338379979
thorax  -2.195739985 2.070389986 1.070000052
lowerneck  -6.708360195 7.425899982 -1.854089975
upperneck  6.947189808 9.88506031 2.999530077
head  3.155309916 4.972400188 1.751970053
lclavicle  0 -9.442270133e-015 7.951389973e-016
lhumerus  2.021939993 -15.36740017 80.74710083
lradius  2.684888212e-031 -2.293516803e-031 139.4949951
lwrist  -7.062250077e-031 -1.765562519e-031 5.354390144
lhand  -1.496451383e-031 -27.76390076 20.11240005
lfingers  90 7.125020027 -90
lthumb  89.89689403 5.08795885 91.16245106
rclavicle  0 -9.442270133e-015 7.951389973e-016
rhumerus  8.510860443 18.28840065 -77.85399628
rradius  -2.59875023e-031 2.390677996e-031 137.3880005
rwrist  7.062250077e-031 -0 -7.777959824
rhand  -7.920061211e-032 -33.2840004 9.303460121
rfingers  -90 -7.125020027 -90
rthumb  -92.93752616 -24.25625642 -97.11982154
rfemur  -16.9095993 6.072649956 8.448960304
rtibia  -0 0 63.15250015
rfoot  -5.099639794e-032 -13.1633997 0.5792739987
rtoes  5.373923086 19.29304026 -105.8922705
lfemur  -21.9008007 -1.928580046 -2.6667099
ltibia  -0 0 58.76470184
lfoot  -0 -9.294400215 8.889840126
ltoes  -4.250644065 -19.5611806 -102.515957
216
root  5.604244593 39.20511261 2.225200022 -3.267028809 -49.86000061 -0.6950073242
lowerback  10.85490036 3.678270102 -5.281909943
upperback  3.895179987 4.200640202 -1.159039974
thorax  -2.29192996 2.037970066 1.217810035
lowerneck  -6.425759792 7.637000084 -1.431190014
upperneck  6.108409882 10.17539978 2.384680033
head  2.861599922 5.106949806 1.449190021
lclavicle  0 -9.442270133e-015 7.951389973e-016
lhumerus  2.222349882 -15.14330006 80.27400208
lradius  2.689406575e-031 -2.288216841e-031 139.6080017
lwrist  -7.062250077e-031 -3.531125038e-031 5.76526022
lhand  -1.496451383e-031 -27.76390076 20.11240005
lfingers  90 7.125020027 -90
lthumb  89.89689403 5.08795885 91.16245106
rclavicle  0 -9.442270133e-015 7.951389973e-016
rhumerus  8.910090446 18.5862999 -77.52220154
rradius  -2.603126832e-031 2.38591172e-031 137.4929962
rwrist  1.412450015e-030 -0 -8.229649544
rhand  -7.920061211e-032 -33.2840004 9.303460121
rfingers  -90 -7.125020027 -90
rthumb  -92.93752616 -24.25625642 -97.11982154
rfemur  -18.02820015 6.751349926 8.146920204
rtibia  -0 0 62.24779892
rfoot  -4.509702866e-032 -11.83069992 0.267922014
rtoes  5.373923086 19.29304026 -105.8922705
lfemur  -22.53300095 -1.378039956 -3.006170034
ltibia  -0 0 58.2038002
lfoot  -0 -7.33412981 9.152090073
ltoes  -4.250644065 -19.5611806 -102.515957
